<mxfile host="app.diagrams.net" modified="2023-11-14T10:39:13.818Z" agent="Mozilla/5.0 (X11; Ubuntu; Linux x86_64; rv:109.0) Gecko/20100101 Firefox/119.0" etag="uWiFiGsMsZBbtgpSdL5P" version="22.1.0" type="google">
  <diagram name="Page-1" id="LQRpS_ib7l_BwTtCBntA">
    <mxGraphModel dx="1364" dy="1895" grid="1" gridSize="10" guides="1" tooltips="1" connect="1" arrows="1" fold="1" page="1" pageScale="1" pageWidth="850" pageHeight="1100" math="0" shadow="0">
      <root>
        <mxCell id="0" />
        <mxCell id="1" parent="0" />
        <mxCell id="71ZQn8c_xGhLu53IjFP4-1" value="" style="rounded=0;whiteSpace=wrap;html=1;fillColor=#ffcc99;strokeColor=#36393d;" vertex="1" parent="1">
          <mxGeometry x="20" y="-1090" width="1230" height="770" as="geometry" />
        </mxCell>
        <mxCell id="71ZQn8c_xGhLu53IjFP4-2" value="" style="rounded=0;whiteSpace=wrap;html=1;" vertex="1" parent="1">
          <mxGeometry x="35" y="-1050" width="1205" height="720" as="geometry" />
        </mxCell>
        <mxCell id="71ZQn8c_xGhLu53IjFP4-3" value="" style="image;html=1;image=img/lib/clip_art/general/Earth_globe_128x128.png" vertex="1" parent="1">
          <mxGeometry x="10" y="-1080" width="90" height="30" as="geometry" />
        </mxCell>
        <mxCell id="71ZQn8c_xGhLu53IjFP4-5" value="&lt;div style=&quot;font-size: 13px;&quot; align=&quot;left&quot;&gt;&lt;font style=&quot;font-size: 14px;&quot;&gt;&lt;b&gt;Razorpay | OTP Page - Google Chrome&lt;br&gt;&lt;/b&gt;&lt;/font&gt;&lt;/div&gt;" style="text;html=1;strokeColor=none;fillColor=none;align=left;verticalAlign=middle;whiteSpace=wrap;rounded=0;" vertex="1" parent="1">
          <mxGeometry x="510" y="-1080" width="270" height="30" as="geometry" />
        </mxCell>
        <mxCell id="71ZQn8c_xGhLu53IjFP4-13" value="" style="rounded=0;whiteSpace=wrap;html=1;" vertex="1" parent="1">
          <mxGeometry x="365" y="-1020" width="545" height="200" as="geometry" />
        </mxCell>
        <mxCell id="71ZQn8c_xGhLu53IjFP4-14" value="" style="rounded=0;whiteSpace=wrap;html=1;" vertex="1" parent="1">
          <mxGeometry x="316.25" y="-870" width="657.5" height="280" as="geometry" />
        </mxCell>
        <mxCell id="71ZQn8c_xGhLu53IjFP4-15" value="&lt;font color=&quot;#000066&quot;&gt;&lt;i&gt;&lt;b&gt;&lt;font style=&quot;font-size: 17px;&quot;&gt;Razorpay&lt;/font&gt;&lt;/b&gt;&lt;/i&gt;&lt;/font&gt;" style="text;html=1;strokeColor=none;fillColor=none;align=center;verticalAlign=middle;whiteSpace=wrap;rounded=0;" vertex="1" parent="1">
          <mxGeometry x="380" y="-1010" width="80" height="40" as="geometry" />
        </mxCell>
        <mxCell id="71ZQn8c_xGhLu53IjFP4-17" value="&lt;div&gt;&lt;font color=&quot;#000033&quot;&gt;&amp;nbsp;Verified By&amp;nbsp;&lt;/font&gt;&lt;/div&gt;&lt;div&gt;&lt;font color=&quot;#000066&quot; style=&quot;font-size: 18px;&quot;&gt;&lt;b&gt;VISA&lt;/b&gt;&lt;/font&gt;&lt;/div&gt;" style="text;html=1;strokeColor=none;fillColor=none;align=center;verticalAlign=middle;whiteSpace=wrap;rounded=0;" vertex="1" parent="1">
          <mxGeometry x="830" y="-1020" width="80" height="60" as="geometry" />
        </mxCell>
        <mxCell id="71ZQn8c_xGhLu53IjFP4-18" value="" style="endArrow=none;html=1;rounded=0;entryX=1;entryY=1;entryDx=0;entryDy=0;exitX=0.002;exitY=0.29;exitDx=0;exitDy=0;exitPerimeter=0;" edge="1" parent="1" source="71ZQn8c_xGhLu53IjFP4-13" target="71ZQn8c_xGhLu53IjFP4-17">
          <mxGeometry width="50" height="50" relative="1" as="geometry">
            <mxPoint x="370" y="-967" as="sourcePoint" />
            <mxPoint x="415" y="-990" as="targetPoint" />
          </mxGeometry>
        </mxCell>
        <mxCell id="71ZQn8c_xGhLu53IjFP4-19" value="&lt;font color=&quot;#241f31&quot;&gt;PAYING TO&lt;/font&gt;" style="text;html=1;strokeColor=none;fillColor=none;align=center;verticalAlign=middle;whiteSpace=wrap;rounded=0;" vertex="1" parent="1">
          <mxGeometry x="380" y="-950" width="80" height="30" as="geometry" />
        </mxCell>
        <mxCell id="71ZQn8c_xGhLu53IjFP4-21" value="&lt;font color=&quot;#241f31&quot;&gt;TOTAL AMOUNT&lt;/font&gt;" style="text;html=1;strokeColor=none;fillColor=none;align=center;verticalAlign=middle;whiteSpace=wrap;rounded=0;" vertex="1" parent="1">
          <mxGeometry x="580" y="-950" width="100" height="30" as="geometry" />
        </mxCell>
        <mxCell id="71ZQn8c_xGhLu53IjFP4-22" value="&lt;font color=&quot;#241f31&quot;&gt;DATE&lt;/font&gt;" style="text;html=1;strokeColor=none;fillColor=none;align=center;verticalAlign=middle;whiteSpace=wrap;rounded=0;" vertex="1" parent="1">
          <mxGeometry x="780" y="-950" width="60" height="30" as="geometry" />
        </mxCell>
        <mxCell id="71ZQn8c_xGhLu53IjFP4-23" value="&lt;font style=&quot;font-size: 16px;&quot;&gt;ABC&lt;/font&gt;" style="text;html=1;strokeColor=none;fillColor=none;align=center;verticalAlign=middle;whiteSpace=wrap;rounded=0;fontStyle=0" vertex="1" parent="1">
          <mxGeometry x="360" y="-920" width="115" height="30" as="geometry" />
        </mxCell>
        <mxCell id="71ZQn8c_xGhLu53IjFP4-24" value="&lt;font style=&quot;font-size: 16px;&quot;&gt;Rs.11.20&lt;/font&gt;" style="text;html=1;strokeColor=none;fillColor=none;align=center;verticalAlign=middle;whiteSpace=wrap;rounded=0;" vertex="1" parent="1">
          <mxGeometry x="570" y="-920" width="100" height="30" as="geometry" />
        </mxCell>
        <mxCell id="71ZQn8c_xGhLu53IjFP4-25" value="&lt;font style=&quot;font-size: 16px;&quot;&gt;7 NOV 2023&lt;/font&gt;" style="text;html=1;strokeColor=none;fillColor=none;align=center;verticalAlign=middle;whiteSpace=wrap;rounded=0;" vertex="1" parent="1">
          <mxGeometry x="770" y="-920" width="90" height="30" as="geometry" />
        </mxCell>
        <mxCell id="71ZQn8c_xGhLu53IjFP4-26" value="&lt;font size=&quot;1&quot;&gt;&lt;b&gt;&lt;font style=&quot;font-size: 19px;&quot;&gt;ENTER OTP&lt;/font&gt;&lt;/b&gt;&lt;/font&gt;" style="text;html=1;strokeColor=none;fillColor=none;align=center;verticalAlign=middle;whiteSpace=wrap;rounded=0;" vertex="1" parent="1">
          <mxGeometry x="312.5" y="-870" width="137.5" height="40" as="geometry" />
        </mxCell>
        <mxCell id="71ZQn8c_xGhLu53IjFP4-27" value="&lt;font color=&quot;#1c71d8&quot;&gt;&lt;b&gt;Secured&lt;/b&gt;&lt;/font&gt; &lt;b&gt;&lt;font color=&quot;#1c71d8&quot;&gt;By&lt;/font&gt;&lt;/b&gt; &lt;b&gt;&lt;i&gt;&lt;font color=&quot;#000066&quot; style=&quot;font-size: 16px;&quot;&gt;Razorpay&lt;/font&gt;&lt;/i&gt;&lt;/b&gt;" style="text;html=1;strokeColor=none;fillColor=none;align=center;verticalAlign=middle;whiteSpace=wrap;rounded=0;" vertex="1" parent="1">
          <mxGeometry x="810" y="-865" width="150" height="30" as="geometry" />
        </mxCell>
        <mxCell id="71ZQn8c_xGhLu53IjFP4-28" value="&lt;div align=&quot;left&quot;&gt;&lt;font style=&quot;font-size: 19px;&quot;&gt;One Time Password (OTP) Successfully Sent to the Phone Number Linked&amp;nbsp;to your card Editing with 111.&lt;/font&gt;&lt;/div&gt;" style="text;html=1;strokeColor=none;fillColor=none;align=left;verticalAlign=middle;whiteSpace=wrap;rounded=0;" vertex="1" parent="1">
          <mxGeometry x="325" y="-820" width="635" height="60" as="geometry" />
        </mxCell>
        <mxCell id="71ZQn8c_xGhLu53IjFP4-29" value="&lt;div align=&quot;left&quot;&gt;&lt;font color=&quot;#5e5c64&quot; style=&quot;font-size: 20px;&quot;&gt;&amp;nbsp;OTP&lt;/font&gt;&lt;/div&gt;" style="rounded=0;whiteSpace=wrap;html=1;align=left;" vertex="1" parent="1">
          <mxGeometry x="350" y="-750" width="280" height="60" as="geometry" />
        </mxCell>
        <mxCell id="71ZQn8c_xGhLu53IjFP4-30" value="&lt;font style=&quot;font-size: 18px;&quot;&gt;Submit&lt;/font&gt;" style="rounded=0;whiteSpace=wrap;html=1;fillColor=#0050ef;fontColor=#ffffff;strokeColor=#001DBC;" vertex="1" parent="1">
          <mxGeometry x="620" y="-750" width="190" height="60" as="geometry" />
        </mxCell>
        <mxCell id="71ZQn8c_xGhLu53IjFP4-33" value="&lt;font color=&quot;#1c71d8&quot; style=&quot;font-size: 14px;&quot;&gt;Cancle&lt;/font&gt;" style="text;html=1;strokeColor=none;fillColor=none;align=center;verticalAlign=middle;whiteSpace=wrap;rounded=0;" vertex="1" parent="1">
          <mxGeometry x="360" y="-650" width="70" height="30" as="geometry" />
        </mxCell>
        <mxCell id="71ZQn8c_xGhLu53IjFP4-34" value="&lt;font color=&quot;#1c71d8&quot; style=&quot;font-size: 14px;&quot;&gt;Resend OTP&lt;/font&gt;" style="text;html=1;strokeColor=none;fillColor=none;align=center;verticalAlign=middle;whiteSpace=wrap;rounded=0;" vertex="1" parent="1">
          <mxGeometry x="480" y="-650" width="100" height="30" as="geometry" />
        </mxCell>
        <mxCell id="71ZQn8c_xGhLu53IjFP4-43" value="" style="image;aspect=fixed;html=1;points=[];align=center;fontSize=12;image=img/lib/azure2/general/Information.svg;" vertex="1" parent="1">
          <mxGeometry x="530" y="-440" width="20" height="20" as="geometry" />
        </mxCell>
        <mxCell id="71ZQn8c_xGhLu53IjFP4-44" value="&lt;div style=&quot;font-size: 13px;&quot; align=&quot;left&quot;&gt;&lt;font style=&quot;font-size: 13px;&quot;&gt;This page will timeout after&amp;nbsp;02:54 minutes&lt;/font&gt;&lt;/div&gt;" style="text;html=1;strokeColor=none;fillColor=none;align=left;verticalAlign=middle;whiteSpace=wrap;rounded=0;" vertex="1" parent="1">
          <mxGeometry x="550" y="-445" width="325" height="30" as="geometry" />
        </mxCell>
        <mxCell id="71ZQn8c_xGhLu53IjFP4-45" value="" style="rounded=0;whiteSpace=wrap;html=1;" vertex="1" parent="1">
          <mxGeometry x="375" y="-590" width="540" height="130" as="geometry" />
        </mxCell>
        <mxCell id="71ZQn8c_xGhLu53IjFP4-46" value="" style="line;strokeWidth=1;html=1;strokeColor=#9a9996;" vertex="1" parent="1">
          <mxGeometry x="390" y="-570" width="200" height="10" as="geometry" />
        </mxCell>
        <mxCell id="71ZQn8c_xGhLu53IjFP4-47" value="OR" style="text;html=1;strokeColor=none;fillColor=none;align=center;verticalAlign=middle;whiteSpace=wrap;rounded=0;" vertex="1" parent="1">
          <mxGeometry x="605" y="-580" width="60" height="30" as="geometry" />
        </mxCell>
        <mxCell id="71ZQn8c_xGhLu53IjFP4-48" value="" style="line;strokeWidth=1;html=1;strokeColor=#77767b;" vertex="1" parent="1">
          <mxGeometry x="680" y="-570" width="210" height="10" as="geometry" />
        </mxCell>
        <mxCell id="71ZQn8c_xGhLu53IjFP4-49" value="" style="sketch=0;pointerEvents=1;shadow=0;dashed=0;html=1;strokeColor=none;labelPosition=center;verticalLabelPosition=bottom;verticalAlign=top;outlineConnect=0;align=center;shape=mxgraph.office.security.lock_protected;fillColor=#2072B8;" vertex="1" parent="1">
          <mxGeometry x="540" y="-540" width="18" height="15" as="geometry" />
        </mxCell>
        <mxCell id="71ZQn8c_xGhLu53IjFP4-50" value="&lt;div align=&quot;left&quot;&gt;&lt;font style=&quot;font-size: 14px;&quot; color=&quot;#3399ff&quot;&gt;&amp;nbsp;Complete Payment On Banks Page&lt;/font&gt;&lt;/div&gt;" style="text;html=1;strokeColor=none;fillColor=none;align=left;verticalAlign=middle;whiteSpace=wrap;rounded=0;" vertex="1" parent="1">
          <mxGeometry x="558" y="-545" width="270" height="30" as="geometry" />
        </mxCell>
        <mxCell id="71ZQn8c_xGhLu53IjFP4-53" value="&lt;font style=&quot;font-size: 15px;&quot;&gt;You will be redirected to the bank&#39;s 3D secure page&lt;/font&gt;." style="text;html=1;strokeColor=none;fillColor=none;align=center;verticalAlign=middle;whiteSpace=wrap;rounded=0;" vertex="1" parent="1">
          <mxGeometry x="490" y="-520" width="350" height="30" as="geometry" />
        </mxCell>
      </root>
    </mxGraphModel>
  </diagram>
</mxfile>
